<?xml version="1.0" encoding="utf-8"?>
<!DOCTYPE svg PUBLIC "-//W3C//DTD SVG 1.1//EN" "http://www.w3.org/Graphics/SVG/1.1/DTD/svg11.dtd">
<svg version="1.1" id="kitesurf" xmlns="http://www.w3.org/2000/svg" xmlns:xlink="http://www.w3.org/1999/xlink" x="0px" y="0px"
	 viewBox="0 0 72 72" >
	<g fill="#0034D2">
		<path d="M19.2 32.9c0-4.46-3.63-8.07-8.1-8.07S3 28.43 3 32.9c0 4.46 3.63 8.08 8.1 8.08s8.1-3.62 8.1-8.08zm-12.53 0c0-2.44 1.98-4.4 4.43-4.4 2.44 0 4.42 1.96 4.42 4.4 0 2.44-1.98 4.4-4.42 4.42-2.45 0-4.42-1.98-4.43-4.42z"/><path d="M62.5 4.76C60.16 2.8 57.37 1.62 54.53.92 51.67.22 48.77 0 46.12 0c-3 0-5.66.28-7.57.52-3.18.4-6.23 1.87-8.8 3.9-.23.15-.4.3-.53.4l-.03.02c-.47.38-.92.78-1.35 1.2-1.45 1.43-2.68 3.05-3.57 4.77-.88 1.74-1.43 3.58-1.43 5.47 0 .74.1 1.48.28 2.2v.06l4.4 15.52c.28.98 1.3 1.54 2.27 1.26.97-.26 1.54-1.27 1.27-2.24l-4.4-15.48c-.1-.42-.15-.86-.15-1.32 0-1.15.35-2.46 1.03-3.78.95-1.86 2.55-3.7 4.44-5.18.36-.25.97-.63 1.88-1 1.38-.56 3.4-1.1 6.13-1.1 1.43 0 3.03.14 4.82.5 1.95.42 3.44 1.34 4.67 2.57 1.83 1.84 3 4.4 3.67 6.54.34 1.07.55 2.02.67 2.68 0 .05.02.08.03.12L31.1 38.2l-8.18 4.6H12.37c-.65 0-1.25.16-1.58.72-.34.56-.35 1.15-.04 1.72L17.5 57c.32.58.94.45 1.6.45h4.85l-1.83 5.2c-.37.94.1 2.22 1.05 2.58.95.37 2-.44 2.38-1.38l2.33-6.4h2.24l5.68 6.53c.7.74 1.85 1 2.6.3.73-.68.77-1.72.08-2.46l-6.22-7.05c-.35-.38-.84-.98-1.35-.98H20.2l-4.73-7.33h7.92c.3 0 .6-.26.87-.4l8.76-4.86.35.07 23.15-20.43h10.62c.96 0 1.75-1.08 1.83-2.04l.02-.74c0-.93-.12-3.02-1-5.45-.86-2.4-2.5-5.34-5.5-7.84zm-10.4.93c-.7-.7-1.5-1.32-2.36-1.87 1.3.13 2.63.33 3.9.64 2.45.6 4.7 1.6 6.5 3.1 2.45 2.04 3.72 4.62 4.42 6.54.37 1.05.56 1.25.66 3.08H57.4c-.28-1.83-.78-3.63-1.7-5.74-.82-1.82-1.96-4.1-3.6-5.75z"/><path d="M51.1 62.2c-1.36 1.25-3.46 2.34-5.96 3.2-3.75 1.28-8.35 2.04-12.58 2.45-4.24.4-8.1.5-10.44.5-.74 0-1.32 0-1.72-.03h-.6c-1.02-.05-1.87.74-1.9 1.75-.04 1 .75 1.86 1.77 1.9 0 0 .92.03 2.45.03 3.23 0 9.2-.14 15.3-1.07 3.05-.46 6.12-1.12 8.9-2.08 2.8-.95 5.34-2.2 7.27-3.98.74-.68.78-1.84.1-2.58-.7-.76-1.86-.8-2.6-.12z"/>
	</g>
</svg>