<?xml version="1.0" encoding="utf-8"?>
<!DOCTYPE svg PUBLIC "-//W3C//DTD SVG 1.1//EN" "http://www.w3.org/Graphics/SVG/1.1/DTD/svg11.dtd">
<svg version="1.1" id="laze" xmlns="http://www.w3.org/2000/svg" xmlns:xlink="http://www.w3.org/1999/xlink" x="0px" y="0px"
	 viewBox="0 0 72 72" >
	<g fill="#0034D2">
		<path d="M16.54 38.84c5.2 0 9.4-4.22 9.4-9.42S21.75 20 16.55 20s-9.4 4.22-9.4 9.42 4.2 9.42 9.4 9.42zm-4.36-13.78c1.12-1.12 2.65-1.8 4.36-1.8 1.7 0 3.24.68 4.36 1.8 1.1 1.12 1.8 2.65 1.8 4.36 0 1.7-.7 3.24-1.8 4.36-1.12 1.12-2.65 1.8-4.36 1.8-1.7 0-3.24-.68-4.36-1.8-1.1-1.12-1.8-2.65-1.8-4.36 0-1.7.7-3.24 1.8-4.36z"/><path d="M71.26 69L55.5 58.84l6.76 4.14c.77.46 1.77.22 2.24-.55.46-.76.22-1.76-.54-2.23l-14.7-9c-.36-.2-.78-.3-1.2-.2l-18.4 3.9-7.9-11.13 13.72-1.83c.2-.02.4-.1.57-.18l10.9-5.93c.7-.38.98-1.23.72-1.97.68-.23 1.33-.52 1.9-.95.7-.5 1.3-1.17 1.7-1.98.4-.8.6-1.73.6-2.7 0-.2-.02-.35-.04-.54-.02-.15-.05-.3-.13-.53-.07-.16-.18-.37-.36-.56-.26-.3-.68-.5-.93-.53-.25-.05-.37-.04-.4-.04H39.8c-.14-.05-.32-.1-.57-.1-.3 0-.67.1-.92.28-.45.34-.56.67-.63.84-.1.28-.1.4-.1.5v.32c-.03 1.97.84 3.72 2.2 4.82.96.8 2.14 1.3 3.4 1.5l-8.4 4.58-16.1 2.14c-.56.08-1.04.44-1.27.96-.23.52-.16 1.13.17 1.6l10.06 14.2c.38.52 1.03.78 1.66.64l18.8-4 3.75 2.3c-.2-.04-.38-.05-.57-.02l-23.56 3.27L2.86 30.5c-.58-.68-1.6-.77-2.3-.2-.67.6-.75 1.62-.18 2.3l25.45 30.03c.36.42.9.63 1.46.56l23.83-3.32L69.5 71.74c.75.5 1.75.27 2.24-.48.5-.76.27-1.76-.48-2.25zM41.12 29.3h7.3l-.07.2c-.24.48-.62.84-1.24 1.13-.6.3-1.44.48-2.4.48-1.2 0-2.2-.36-2.86-.9-.3-.26-.54-.55-.72-.9z"/>
	</g>
</svg>