<?xml version="1.0" encoding="utf-8"?>
<!DOCTYPE svg PUBLIC "-//W3C//DTD SVG 1.1//EN" "http://www.w3.org/Graphics/SVG/1.1/DTD/svg11.dtd">
<svg version="1.1" id="parameter" xmlns="http://www.w3.org/2000/svg" xmlns:xlink="http://www.w3.org/1999/xlink" x="0px" y="0px"
	 viewBox="0 0 72 72" >
	<g fill="#0034D2">
		<path d="M36 0C16.12 0 0 16.12 0 36s16.12 36 36 36 36-16.12 36-36S55.88 0 36 0zm.57 8.75c7.43 0 13.45 6.03 13.45 13.45 0 7.43-6.02 13.45-13.45 13.45S23.12 29.63 23.12 22.2c0-7.42 6.02-13.45 13.45-13.45zm20.75 52.6c-5.73 4.87-13.15 7.82-21.27 7.82-7.57 0-14.54-2.57-20.1-6.88-.13-.98-.23-1.96-.23-2.96 0-11.52 9.34-20.85 20.85-20.85 11.5 0 20.85 9.32 20.85 20.84 0 .67-.04 1.34-.1 2z"/>
	</g>
</svg>