<?xml version="1.0" encoding="utf-8"?>
<!DOCTYPE svg PUBLIC "-//W3C//DTD SVG 1.1//EN" "http://www.w3.org/Graphics/SVG/1.1/DTD/svg11.dtd">
<svg version="1.1" id="member" xmlns="http://www.w3.org/2000/svg" xmlns:xlink="http://www.w3.org/1999/xlink" x="0px" y="0px"
	 viewBox="0 0 72 72" >
<g fill="#0034D2">
	<path d="M12.17 46.76c.23 0 .47 0 .7.05.96 1.26 1.46 2.6 1.15 3.6-.27.9-1.18 1.35-2.47 1.35-.16 0-.33 0-.5-.02-1.34-1.1-1.94-2.52-1.46-3.6.38-.9 1.4-1.37 2.57-1.37M3.86 47.36c.98 0 2.1.33 3.22.97 1.63.93 2.9 2.26 3.62 3.44-.38.15-.84.23-1.37.23-.92 0-2.03-.25-3.18-.8-1.8-.84-3.12-2.25-3.5-3.65.36-.13.77-.2 1.2-.2"/>
	<path d="M10.34 42.02c.3 0 .58.03.88.1.63 1.34.76 2.8.17 3.9-.5.9-1.47 1.36-2.66 1.36-.23 0-.46-.02-.7-.05-1.02-1.3-1.24-2.83-.48-3.96.6-.9 1.66-1.35 2.78-1.35M1.85 42.3c1.03 0 2.14.4 3.15 1.18 1.38 1.06 2.3 2.54 2.66 3.87-.36.13-.78.2-1.23.2-.97 0-2.1-.32-3.16-1-1.55-1.02-2.5-2.6-2.52-4.08.35-.1.72-.16 1.1-.16"/>
	<path d="M9.7 37.06c.33 0 .68.04 1 .13.32 1.38.1 2.9-.77 4-.7.9-1.72 1.34-2.85 1.34-.28 0-.57-.03-.87-.1-.67-1.4-.5-3 .53-4.1.8-.87 1.88-1.28 2.96-1.28M1.1 37.03c1.08 0 2.16.44 3.02 1.3 1.14 1.15 1.7 2.7 1.72 4.14-.35.1-.73.16-1.12.16-1.03 0-2.14-.38-3.1-1.2-1.3-1.1-1.86-2.77-1.52-4.27.32-.1.66-.13 1-.13"/>
	<path d="M10.2 32.1c.4 0 .8.06 1.16.17-.02 1.37-.6 2.87-1.74 3.96-.86.82-1.94 1.24-3 1.24-.35 0-.7-.04-1.03-.12-.36-1.45.18-3.04 1.5-4.1.93-.78 2.05-1.14 3.1-1.14M1.57 31.75c1.15 0 2.2.48 2.9 1.4.87 1.16 1.06 2.75.74 4.2-.32.08-.65.12-1 .12-1.08 0-2.17-.43-2.97-1.33C.18 34.97 0 33.3.7 31.84c.3-.06.58-.1.87-.1M11.84 27.38c.48 0 .92.07 1.32.2-.34 1.3-1.27 2.7-2.67 3.72-1.02.73-2.14 1.1-3.18 1.1-.4 0-.78-.06-1.14-.17-.02-1.43.9-2.93 2.46-3.9 1.06-.64 2.2-.95 3.2-.95"/>
	<path d="M3.26 26.72c1.24 0 2.25.48 2.76 1.43.6 1.14.43 2.66-.23 4.07-.3.06-.6.1-.9.1-1.14 0-2.2-.48-2.83-1.42-.78-1.18-.57-2.8.47-4.13.25-.04.5-.05.72-.05M14.6 23.1c.57 0 1.1.1 1.52.25-.67 1.14-1.95 2.4-3.6 3.3-1.12.6-2.26.9-3.26.9-.47 0-.9-.06-1.3-.2.32-1.35 1.6-2.7 3.42-3.5 1.13-.5 2.26-.74 3.2-.74"/>
	<path d="M6.15 22.16c1.37 0 2.35.48 2.64 1.4.32 1.06-.23 2.46-1.22 3.76-.25.04-.5.05-.73.05-1.24 0-2.28-.48-2.7-1.43-.5-1.13.1-2.6 1.48-3.76l.52-.02M18.4 19.52c.74 0 1.37.1 1.82.28-1 .92-2.62 1.97-4.5 2.68-1.2.46-2.33.7-3.3.7-.56 0-1.06-.1-1.48-.25.66-1.2 2.32-2.33 4.37-2.93 1.14-.33 2.2-.48 3.1-.48"/>
	<path d="M10.15 18.32c1.6 0 2.6.45 2.62 1.33.04.9-.88 2.1-2.2 3.24h-.52c-1.36 0-2.4-.48-2.58-1.4-.22-1.02.78-2.27 2.5-3.18h.18"/>
	<g>
		<path d="M59.83 46.76c-.23 0-.47 0-.7.05-.96 1.26-1.46 2.6-1.15 3.6.27.9 1.18 1.35 2.47 1.35.16 0 .33 0 .5-.02 1.34-1.1 1.94-2.52 1.46-3.6-.38-.9-1.4-1.37-2.57-1.37M68.14 47.36c-.98 0-2.1.33-3.22.97-1.63.93-2.9 2.26-3.62 3.44.38.15.84.23 1.37.23.92 0 2.03-.25 3.18-.8 1.8-.84 3.12-2.25 3.5-3.65-.36-.13-.77-.2-1.2-.2"/>
		<path d="M61.66 42.02c-.3 0-.58.03-.88.1-.63 1.34-.76 2.8-.17 3.9.5.9 1.47 1.36 2.66 1.36.23 0 .46-.02.7-.05 1.02-1.3 1.24-2.83.48-3.96-.6-.9-1.66-1.35-2.78-1.35M70.15 42.3c-1.03 0-2.14.4-3.15 1.18-1.38 1.06-2.3 2.54-2.66 3.87.36.13.78.2 1.23.2.97 0 2.1-.32 3.16-1 1.55-1.02 2.5-2.6 2.52-4.08-.35-.1-.72-.16-1.1-.16"/>
		<path d="M62.3 37.06c-.33 0-.68.04-1 .13-.32 1.38-.1 2.9.77 4 .7.9 1.72 1.34 2.85 1.34.28 0 .57-.03.87-.1.67-1.4.5-3-.53-4.1-.8-.87-1.88-1.28-2.96-1.28M70.9 37.03c-1.08 0-2.16.44-3.02 1.3-1.14 1.15-1.7 2.7-1.72 4.14.35.1.73.16 1.12.16 1.03 0 2.14-.38 3.1-1.2 1.3-1.1 1.86-2.77 1.52-4.27-.32-.1-.66-.13-1-.13"/>
		<path d="M61.8 32.1c-.4 0-.8.06-1.16.17.02 1.37.6 2.87 1.74 3.96.86.82 1.94 1.24 3 1.24.35 0 .7-.04 1.03-.12.36-1.45-.18-3.04-1.5-4.1-.93-.78-2.05-1.14-3.1-1.14M70.43 31.75c-1.15 0-2.2.48-2.9 1.4-.87 1.16-1.06 2.75-.74 4.2.32.08.65.12 1 .12 1.08 0 2.17-.43 2.97-1.33 1.05-1.17 1.23-2.84.54-4.3-.3-.06-.58-.1-.87-.1M60.16 27.38c-.48 0-.92.07-1.32.2.34 1.3 1.27 2.7 2.67 3.72 1.02.73 2.14 1.1 3.18 1.1.4 0 .78-.06 1.14-.17.02-1.43-.9-2.93-2.46-3.9-1.06-.64-2.2-.95-3.2-.95"/>
		<path d="M68.74 26.72c-1.24 0-2.25.48-2.76 1.43-.6 1.14-.43 2.66.23 4.07.3.06.6.1.9.1 1.14 0 2.2-.48 2.83-1.42.78-1.18.57-2.8-.47-4.13-.25-.04-.5-.05-.72-.05M57.4 23.1c-.57 0-1.1.1-1.52.25.67 1.14 1.95 2.4 3.6 3.3 1.12.6 2.26.9 3.26.9.47 0 .9-.06 1.3-.2-.32-1.35-1.6-2.7-3.42-3.5-1.13-.5-2.26-.74-3.2-.74"/>
		<path d="M65.85 22.16c-1.37 0-2.35.48-2.64 1.4-.32 1.06.23 2.46 1.22 3.76.25.04.5.05.73.05 1.24 0 2.28-.48 2.7-1.43.5-1.13-.1-2.6-1.48-3.76l-.52-.02M53.6 19.52c-.74 0-1.37.1-1.82.28 1 .92 2.62 1.97 4.5 2.68 1.2.46 2.33.3.3.7.56 0 1.06-.1 1.48-.25-.66-1.2-2.32-2.33-4.37-2.93-1.14-.33-2.2-.48-3.1-.48"/>
		<path d="M61.85 18.32c-1.6 0-2.6.45-2.62 1.33-.04.9.88 2.1 2.2 3.24h.52c1.36 0 2.4-.48 2.58-1.4.22-1.02-.78-2.27-2.5-3.18h-.18"/>
	</g>
</g>
</svg>