<?xml version="1.0" encoding="utf-8"?>
<!DOCTYPE svg PUBLIC "-//W3C//DTD SVG 1.1//EN" "http://www.w3.org/Graphics/SVG/1.1/DTD/svg11.dtd">
<svg version="1.1" id="parameter" xmlns="http://www.w3.org/2000/svg" xmlns:xlink="http://www.w3.org/1999/xlink" x="0px" y="0px"
	 viewBox="0 0 72 72" >
	<g fill="#0034D2">
		<path d="M12.27 38.64V7.2C12.27 6 11.3 5 10.1 5 8.87 5 7.9 6 7.9 7.2v31.25c-4.38.88-7.9 4.87-7.9 9.7 0 4.8 3.52 8.8 7.9 9.67v6.97c0 1.2.98 2.2 2.2 2.2 1.2 0 2.17-1 2.17-2.2v-7.17c4.38-1.13 7.23-4.93 7.23-9.5 0-4.55-2.85-8.36-7.23-9.5zm-2.4 14.94c-2.96 0-5.36-2.44-5.36-5.44 0-3 2.4-5.44 5.38-5.44 2.97 0 5.37 2.43 5.38 5.44 0 3-2.4 5.43-5.38 5.44zM38.52 16.5V7.2c0-1.2-.97-2.2-2.18-2.2-1.2 0-2.2 1-2.2 2.2v9.1c-4.37.9-7.9 4.88-7.9 9.7 0 4.8 3.53 8.8 7.9 9.67V64.8c0 1.2 1 2.2 2.2 2.2 1.2 0 2.18-1 2.18-2.2V35.47c4.38-1.13 7.23-4.93 7.23-9.5 0-4.55-2.85-8.35-7.23-9.48zm-2.4 14.93c-2.96 0-5.36-2.44-5.36-5.44 0-3 2.4-5.44 5.37-5.45 2.97 0 5.37 2.44 5.38 5.44 0 3-2.4 5.43-5.37 5.43zM72 32.64c0-4.57-2.85-8.37-7.23-9.5V7.2C64.77 6 63.8 5 62.6 5c-1.22 0-2.2 1-2.2 2.2v15.75c-4.38.88-7.9 4.87-7.9 9.7 0 4.8 3.52 8.8 7.9 9.67V64.8c0 1.2.98 2.2 2.2 2.2 1.2 0 2.17-1 2.17-2.2V42.12C69.15 41 72 37.2 72 32.63zm-9.62 5.44c-2.96 0-5.37-2.44-5.37-5.44 0-3 2.42-5.44 5.38-5.45 2.97 0 5.37 2.43 5.38 5.44 0 3-2.4 5.43-5.38 5.44z"/>
	</g>
</svg>