<?xml version="1.0" encoding="utf-8"?>
<!DOCTYPE svg PUBLIC "-//W3C//DTD SVG 1.1//EN" "http://www.w3.org/Graphics/SVG/1.1/DTD/svg11.dtd">
<svg version="1.1" id="rafale" xmlns="http://www.w3.org/2000/svg" xmlns:xlink="http://www.w3.org/1999/xlink" x="0px" y="0px"
	 viewBox="0 0 72 72" >
	<g fill="#0034D2">
		<path d="M67.53 13.87c0-2.1.45-4-.04-5.56-.26-.77-.18-1.47-.66-2.13-.24-.33-.36-.65-.78-.94-.33-.22-.68-.37-1.16-.44l.06-.07L31.84.53c-.32-.1-.63-.53-1-.53-.7 0-1.35.62-1.84.94l-.05.13-12.8 12.03c-.2-.06-.4.27-.63.27h-.26c-1.68 0-3.07 0-3.27 2.23h-.03v0l-.02.3c0 1.22.66 2.3 1.64 2.88L4 71.18l4.34.82 9.86-53.83 10.1 8.18c.24.27.5.06.85.28.5.34 1.18.1 1.9.1h.03c.26 0 .5.42.76.36l33.4-4.28-.02.07c.44-.1.84-.17 1.15-.38.73-.5 1.1-1.06 1.4-1.65.45-.9 0-1.9.2-3.03s-.44-2.4-.44-3.74v-.23zm-36.5 8.57c-.23-.53-1.45-1.25-1.64-2.1-.4-1.66-1.64-3.8-1.64-6.1v-.3c0-2.84 1.33-5.4 1.85-7.1.1-.32.7-.6.8-.85.23.52.7 1.25.9 2.1.38 1.66.88 3.8.88 6.1v.3c0 2.85-.34 5.42-.86 7.1-.1.33-.2.6-.3.85zm-5.76-8.17c.02 1.46.12 2.84.28 4.14l-4.73-3.82 4.63-4.2c-.1 1.15-.18 2.33-.18 3.57v.32zm11.33-.1c0-3.18-.42-6.06-1.1-8.35l6.56.76c.07.12.07.3.16.53.58 1.4 1 4.2 1 7v.3c0 2.24-.18 4.44-.6 5.9-.18.65-.34 1.15-.48 1.4l-6.52.87c.2-.7.37-1.42.5-2.2.32-1.76.48-3.74.48-5.86v-.3zm11.04-.1c0-2.52-.24-4.93-.77-6.93l7.1.8c.16.36.07 1.04.23 1.88.24 1.15.07 2.63.07 4.2v.25c0 1.98.14 3.8-.2 4.96-.1.4-.02.66-.12.84l-6.96.96c.13-.56.2-1.13.3-1.74.26-1.52.34-3.2.34-4.9v-.3zm7.28 5.86v.02-.02zm3.77-5.97c0-2 .12-3.85-.25-5.45l5.16.58c.14.27-.33.75-.2 1.36.2.94-.3 2.16-.3 3.48v.18c0 1.7.53 3.2.24 4.13-.06.2.24.38.18.52l-4.78.67c.06-.3-.14-.6-.1-.9.22-1.3.05-2.74.05-4.26v-.3zm-43.5 2l-1.04-.08 1.04.08zm.15-1.1l-.1 1.1v-.05l.08-1.05h.02zM64.7 19.1v-.46.47zM29.97 55.7h8.84v4.46h-8.83z"/>
		<path d="M21.14 44.56H34.4v4.46H21.13zM34.4 35.65h11.04v4.46H34.4z"/>
	</g>
</svg>