<?xml version="1.0" encoding="utf-8"?>
<!DOCTYPE svg PUBLIC "-//W3C//DTD SVG 1.1//EN" "http://www.w3.org/Graphics/SVG/1.1/DTD/svg11.dtd">
<svg version="1.1" id="spot" xmlns="http://www.w3.org/2000/svg" xmlns:xlink="http://www.w3.org/1999/xlink" x="0px" y="0px"
	 viewBox="0 0 72 72" >
	<g>
		<path fill="#0034D2" d="M36 0C20.54 0 8 12.43 8 27.76 8 43.1 36 59.06 36 72c0-12.94 28-28.9 28-44.24C64 12.43 51.46 0 36 0zm-.52 47.04c-11.46 0-20.75-9.2-20.75-20.57 0-11.36 9.3-20.58 20.75-20.58 11.46 0 20.75 9.2 20.75 20.57 0 11.36-9.3 20.57-20.75 20.57z"/>
		<path fill="#0034D2" d="M35.48 10.03c-9.16 0-16.58 7.36-16.58 16.44 0 9.07 7.42 16.43 16.58 16.43 9.15 0 16.58-7.36 16.58-16.43 0-9.08-7.43-16.44-16.58-16.44zm2.08 4.14c-7.56 0-13.7 6.07-13.7 13.56 0 4.76 2.5 8.95 6.23 11.37-5.23-1.9-8.97-6.88-8.97-12.72 0-7.5 6.13-13.58 13.7-13.58 2.75 0 5.3.82 7.46 2.2-1.48-.52-3.08-.83-4.74-.83z"/>
	</g>
</svg>