<?xml version="1.0" encoding="utf-8"?>
<!DOCTYPE svg PUBLIC "-//W3C//DTD SVG 1.1//EN" "http://www.w3.org/Graphics/SVG/1.1/DTD/svg11.dtd">
<svg version="1.1" id="Calque_1" xmlns="http://www.w3.org/2000/svg" xmlns:xlink="http://www.w3.org/1999/xlink" x="0px" y="0px"
	 viewBox="0 0 72 72" >
	<g fill="#0034D2">
		<path d="M53.9 8.57c-4.82 0-8.73-3.77-9.1-8.56-.38 4.8-4.3 8.57-9.12 8.57-4.8 0-8.75-3.77-9.12-8.57-.38 4.8-4.37 8.57-9.2 8.57-2.44 0-4.7-.98-6.36-2.57v61.68c0 2.8 2.36 4.32 5.12 4.32h40c2.76 0 4.88-1.52 4.88-4.32V5.06c-1.67 2.13-4.2 3.5-7.1 3.5zm-9.57 21.1h5v3.38h-5v-3.4zm0 10.15h5v3.4h-5v-3.4zM34.2 69.37c-2.74 0-5.23-1.14-7.02-2.97-1.8-1.82-2.9-4.36-2.9-7.15 0-1.8.52-3.4 1.3-4.74.62-1.08.42-1.97 2.1-2.75V18.47c0-1.78.7-3.8 1.83-5.03 1.13-1.23 2.8-2.4 4.6-2.4h.42c1.8 0 3.38 1.15 4.57 2.35 1.18 1.2 1.9 3.23 1.9 5.07V52c0 .8 1.5 1.7 2.05 2.75.67 1.32 1.15 2.85 1.15 4.5 0 5.6-4.5 10.12-10 10.12zM52.67 48.3h-8.34v-3.4h8.34v3.4zm0-10.17h-8.34v-3.4h8.34v3.4zm0-10.16h-8.34v-3.4h8.34v3.4z"/>
		<path d="M38.27 53.92l-.6-.5V18.47c0-.84-.3-2.05-.93-2.68-.62-.63-1.4-1.38-2.22-1.38h-.4c-.84 0-1.6.73-2.17 1.33-.54.6-.95 1.82-.95 2.72v34.7l-.5.52c-.72.66-1.46 1.55-2.02 2.52s-.88 2-.88 3.03c0 1.87.74 3.54 1.93 4.77 1.2 1.2 2.84 1.96 4.67 1.96 1.84 0 3.5-.75 4.73-1.98 1.22-1.23 1.97-2.9 1.97-4.75 0-1.03-.3-2.02-.78-2.94-.46-.9-1.16-1.74-1.85-2.38zm-4.1 10.4c-2.74 0-5.03-2.27-5.03-5.07 0-2.3.2-4.2 3.53-4.83v-24c0-.94.74-1.7 1.66-1.7.92 0 1.67.76 1.67 1.7V54.6c1.67.77 3.1 2.56 3.1 4.65 0 2.8-2.18 5.06-4.92 5.06z"/>
	</g>
</svg>