<?xml version="1.0" encoding="utf-8"?>
<!DOCTYPE svg PUBLIC "-//W3C//DTD SVG 1.1//EN" "http://www.w3.org/Graphics/SVG/1.1/DTD/svg11.dtd">
<svg version="1.1" id="windsurf" xmlns="http://www.w3.org/2000/svg" xmlns:xlink="http://www.w3.org/1999/xlink" x="0px" y="0px"
	 viewBox="0 0 72 72" >
	<g fill="#0034D2">
		<path d="M29.57 40.53c0-3.63-3-6.57-6.67-6.57-3.68 0-6.67 2.94-6.67 6.57 0 3.64 3 6.57 6.67 6.58 3.68 0 6.67-2.93 6.67-6.57zm-9.68 0c0-1.63 1.34-2.96 3-2.96s3 1.33 3 2.96c0 1.64-1.34 2.96-3 2.97-1.66 0-3-1.33-3-2.97zM29.53 60.98h3.1l-1.25 3.34c-.38.92.07 2.14 1 2.52.94.38 2-.32 2.4-1.24l1.8-4.62h1.4l5.38 4.67c.78.63 1.96.68 2.6-.1.64-.76-.22-1.8-.22-2.44v.05l-5.9-5.05c-.33-.27-.77-.73-1.2-.73h-8.03l-3.2-5.4h5.43c.3 0 .6.1.88-.05l6.78-3.54c.9-.48 1.22-1.53.74-2.4-.5-.88-1.6-1.36-2.5-.88l-6.35 3.25h-8.05c-.65 0-1.24.5-1.57 1.06-.33.56-.34 1.32-.03 1.9l5.2 9.04c.33.58.95.64 1.6.64z"/><path d="M73 57.23c-3.28 2.7-7.6 4.82-12.27 6.4-7 2.4-14.7 3.62-20.65 4.22-2.97.3-5.5.45-7.28.53-.9.04-1.6-.07-2.07-.06-.24 0-.42-.12-.54-.12H30c-1 0-1.82.93-1.82 1.93 0 1 .82 1.87 1.83 1.87.07 0 7.67.03 17.1-1.45 4.72-.74 9.9-1.83 14.83-3.52 4.94-1.68 9.65-3.93 13.42-7.04.77-.66.87-1.8.22-2.55-.65-.77-1.8-.86-2.58-.22z"/><path d="M35.13 35.13c7.66 9.2 12.5 15.94 15.44 20.35 1.46 2.2 2.44 3.84 3.06 4.9l.65 1.18.15.28.03.06c.44.9 1.53 1.28 2.44.85.9-.43 1.3-1.5.87-2.4-.08-.17-4.35-8.93-19.8-27.52-5.27-6.33-13-13.4-19.43-18.93C12.1 8.37 6.98 4.4 6.96 4.4c-.8-.63-1.95-.5-2.57.3-.63.78-.5 1.9.3 2.52l.9.7c2 1.58 7.18 5.73 12.97 10.82 5.8 5.08 12.18 11.1 16.56 16.38z"/>
	</g>
</svg>