<?xml version="1.0" encoding="utf-8"?>
<!-- Generator: Adobe Illustrator 26.0.3, SVG Export Plug-In . SVG Version: 6.00 Build 0)  -->
<svg version="1.1" id="Calque_1" xmlns="http://www.w3.org/2000/svg" xmlns:xlink="http://www.w3.org/1999/xlink" x="0px" y="0px"
	 viewBox="0 0 615.1 280.6" style="enable-background:new 0 0 615.1 280.6;" xml:space="preserve">
<style type="text/css">
	.st0{fill:#0034D2;}
	.st1{fill:#FFFFFF;}
	.st2{fill:#58585A;}
	.st3{fill:#0033CC;}
</style>
<circle class="st0" cx="139.8" cy="138.7" r="117.5"/>
<path class="st1" d="M221.4,85.8L188,203.6h-30l-18.4-66.1l-18.1,66.1H91.8L58.2,85.8h29.2l20.4,74.5L129,85.8h23.3l19.3,74l20.1-74
	H221.4z"/>
<g>
	<path class="st2" d="M307.2,164.5l3.6-16.7h1.3l-3.3,15.6h10.6l-0.2,1.2h-12V164.5z"/>
	<path class="st2" d="M322,159c-0.1,0.4-0.1,0.8-0.1,1.2c0,2.3,1.4,3.5,4.1,3.5c2.4,0,4.2-1,5.3-2.9h1.3c-1.4,2.7-3.7,4.1-6.9,4.1
		c-1.6,0-2.8-0.4-3.6-1.1c-0.9-0.8-1.4-1.9-1.4-3.4c0-0.6,0.1-1.2,0.2-1.9c0.4-1.9,1.3-3.4,2.7-4.6c1.4-1.2,3-1.8,4.9-1.8
		c1.5,0,2.7,0.4,3.7,1.1c1,0.8,1.5,1.9,1.5,3.3c0,0.5-0.1,1-0.2,1.5l-0.2,0.9L322,159z M328.2,153.4c-1.4,0-2.7,0.4-3.7,1.2
		c-1.1,0.8-1.8,1.9-2.2,3.2h9.9c0-0.3,0.1-0.6,0.1-0.9c0-1.2-0.4-2-1.1-2.7C330.4,153.6,329.4,153.4,328.2,153.4z"/>
	<path class="st2" d="M348.9,164.5h-1.1l-3.3-12.1h1.5l2.7,10.4l6.8-10.4h1.4L348.9,164.5z"/>
	<path class="st2" d="M357.2,159c-0.1,0.4-0.1,0.8-0.1,1.2c0,2.3,1.4,3.5,4.1,3.5c2.4,0,4.2-1,5.3-2.9h1.3c-1.4,2.7-3.7,4.1-6.9,4.1
		c-1.6,0-2.8-0.4-3.6-1.1c-0.9-0.8-1.4-1.9-1.4-3.4c0-0.6,0.1-1.2,0.2-1.9c0.4-1.9,1.3-3.4,2.7-4.6c1.4-1.2,3-1.8,4.9-1.8
		c1.5,0,2.7,0.4,3.7,1.1c1,0.8,1.5,1.9,1.5,3.3c0,0.5-0.1,1-0.2,1.5l-0.2,0.9L357.2,159z M363.4,153.4c-1.4,0-2.7,0.4-3.7,1.2
		c-1.1,0.8-1.8,1.9-2.2,3.2h9.9c0-0.3,0.1-0.6,0.1-0.9c0-1.2-0.4-2-1.1-2.7C365.6,153.6,364.6,153.4,363.4,153.4z"/>
	<path class="st2" d="M378.7,164.5l1.7-7.9c0.1-0.3,0.1-0.6,0.1-0.9c0-1.6-1.1-2.4-3.2-2.4c-1.4,0-2.5,0.4-3.5,1.2s-1.6,1.9-1.9,3.2
		l-1.4,6.8h-1.3l2.6-12.1h1.3l-0.3,1.7c1.2-1.3,2.8-1.9,4.8-1.9c1.2,0,2.2,0.2,2.9,0.7c0.9,0.6,1.4,1.4,1.4,2.5c0,0.3,0,0.7-0.1,1
		l-1.7,8.1L378.7,164.5L378.7,164.5z"/>
	<path class="st2" d="M387.7,154.2l-2.2,10.4h-1.2l2.1-10.4H384l0.2-1.2h2.4l0.8-3.6h1.3L388,153h2.5l-0.2,1.2H387.7z"/>
	<path class="st2" d="M400.8,159c-0.1,0.4-0.1,0.8-0.1,1.2c0,2.3,1.4,3.5,4.1,3.5c2.4,0,4.2-1,5.3-2.9h1.3c-1.4,2.7-3.7,4.1-6.9,4.1
		c-1.6,0-2.8-0.4-3.6-1.1c-0.9-0.8-1.4-1.9-1.4-3.4c0-0.6,0.1-1.2,0.2-1.9c0.4-1.9,1.3-3.4,2.7-4.6c1.4-1.2,3-1.8,4.9-1.8
		c1.5,0,2.7,0.4,3.7,1.1c1,0.8,1.5,1.9,1.5,3.3c0,0.5-0.1,1-0.2,1.5l-0.2,0.9L400.8,159z M407,153.4c-1.4,0-2.7,0.4-3.7,1.2
		c-1.1,0.8-1.8,1.9-2.2,3.2h9.9c0-0.3,0.1-0.6,0.1-0.9c0-1.2-0.4-2-1.1-2.7C409.2,153.6,408.3,153.4,407,153.4z"/>
	<path class="st2" d="M422.3,164.5l1.7-7.9c0.1-0.3,0.1-0.6,0.1-0.9c0-1.6-1.1-2.4-3.2-2.4c-1.4,0-2.5,0.4-3.5,1.2s-1.6,1.9-1.9,3.2
		l-1.4,6.8h-1.3l2.6-12.1h1.3l-0.3,1.7c1.2-1.3,2.8-1.9,4.8-1.9c1.2,0,2.2,0.2,2.9,0.7c0.9,0.6,1.4,1.4,1.4,2.5c0,0.3,0,0.7-0.1,1
		l-1.7,8.1L422.3,164.5L422.3,164.5z"/>
	<path class="st2" d="M440.7,154.2l-2.2,10.4h-1.2l2.1-10.4H437l0.2-1.2h2.4l0.8-3.6h1.3L441,153h2.5l-0.2,1.2H440.7z"/>
	<path class="st2" d="M444.5,159c-0.1,0.4-0.1,0.8-0.1,1.2c0,2.3,1.4,3.5,4.1,3.5c2.4,0,4.2-1,5.3-2.9h1.3c-1.4,2.7-3.7,4.1-6.9,4.1
		c-1.6,0-2.8-0.4-3.6-1.1c-0.9-0.8-1.4-1.9-1.4-3.4c0-0.6,0.1-1.2,0.2-1.9c0.4-1.9,1.3-3.4,2.7-4.6c1.4-1.2,3-1.8,4.9-1.8
		c1.5,0,2.7,0.4,3.7,1.1c1,0.8,1.5,1.9,1.5,3.3c0,0.5-0.1,1-0.2,1.5l-0.2,0.9L444.5,159z M450.7,153.4c-1.4,0-2.7,0.4-3.7,1.2
		c-1.1,0.8-1.8,1.9-2.2,3.2h9.9c0-0.3,0.1-0.6,0.1-0.9c0-1.2-0.4-2-1.1-2.7C452.9,153.6,451.9,153.4,450.7,153.4z"/>
	<path class="st2" d="M473.2,164.5l1.7-7.9c0.1-0.4,0.1-0.8,0.1-1.1c0-1.5-0.9-2.2-2.6-2.2c-1.2,0-2.2,0.3-3,1s-1.4,1.5-1.6,2.7
		l-1.6,7.6h-1.3l1.7-7.9c0.1-0.4,0.1-0.8,0.1-1.1c0-1.5-0.9-2.2-2.7-2.2c-1.2,0-2.3,0.4-3.2,1.3c-0.8,0.8-1.4,1.8-1.6,3.1l-1.4,6.8
		h-1.3l2.6-12.1h1.3l-0.3,1.6c1.2-1.2,2.7-1.9,4.5-1.9c1.9,0,3,0.7,3.4,2.1c1.1-1.4,2.7-2.1,4.7-2.1c2.5,0,3.8,1,3.8,3
		c0,0.4,0,0.8-0.1,1.3l-1.7,8.1h-1.5V164.5z"/>
	<path class="st2" d="M483.3,165c-2.2,0-3.7-0.8-4.4-2.4l-1.3,6.1h-1.3l3.5-16.2h1.3l-0.4,2.1c1.4-1.6,3.2-2.4,5.4-2.4
		c1.5,0,2.8,0.4,3.6,1.1c0.9,0.8,1.4,2,1.4,3.4c0,0.6-0.1,1.2-0.2,1.8c-0.4,2-1.3,3.5-2.6,4.6C486.9,164.4,485.3,165,483.3,165z
		 M485.9,153.4c-1.5,0-2.9,0.5-4,1.4c-1.1,1-1.8,2.2-2.1,3.7c-0.1,0.6-0.2,1.1-0.2,1.6c0,2.5,1.4,3.7,4.1,3.7c1.5,0,2.9-0.5,3.9-1.5
		c1-0.9,1.6-2.2,2-3.8c0.1-0.5,0.2-1,0.2-1.5c0-1.2-0.3-2.1-1-2.8C488,153.7,487.1,153.4,485.9,153.4z"/>
	<path class="st2" d="M496.8,164.9c-3.1,0-4.6-1.2-4.6-3.5c0-0.4,0.1-0.9,0.2-1.4h1.3c-0.1,0.4-0.1,0.8-0.1,1.2
		c0,1.7,1.2,2.5,3.6,2.5c2.4,0,3.8-0.8,4.1-2.3c0-0.1,0-0.2,0-0.3c0-0.8-0.7-1.4-2.1-1.7c-0.1,0-0.9-0.2-2.4-0.4
		c-2.1-0.3-3.1-1.2-3.1-2.5c0-0.2,0-0.4,0.1-0.7c0.2-1.1,0.9-2,2-2.7c1-0.6,2.1-0.9,3.3-0.9c3,0,4.5,1.1,4.5,3.2
		c0,0.4,0,0.8-0.1,1.2h-1.3c0.1-0.4,0.1-0.7,0.1-1c0-1.5-1.1-2.2-3.3-2.2c-0.9,0-1.7,0.2-2.4,0.5c-0.8,0.4-1.3,1-1.5,1.8
		c0,0.1,0,0.2,0,0.3c0,0.8,0.7,1.3,2.1,1.6c0.4,0.1,1.3,0.2,2.5,0.5c2,0.4,3,1.2,3,2.6c0,0.2,0,0.5-0.1,0.7c-0.3,1.2-1,2.2-2.1,2.8
		C499.4,164.6,498.2,164.9,496.8,164.9z"/>
	<path class="st2" d="M516.1,159.7l-1,4.8h-1.3l2.6-12.1h1.3l-0.4,2c0.3-0.4,0.7-0.7,1.2-1c1.3-0.9,2.8-1.3,4.6-1.3l-0.2,1.2
		C519.1,153.4,516.9,155.5,516.1,159.7z"/>
	<path class="st2" d="M523.9,158.9c-0.1,0.4-0.1,0.9-0.1,1.2c0,2.4,1.4,3.5,4.1,3.5c2.4,0,4.2-1,5.3-3h1.3c-1.4,2.8-3.7,4.1-6.9,4.1
		c-1.6,0-2.8-0.4-3.6-1.1c-0.9-0.8-1.4-1.9-1.4-3.4c0-0.6,0.1-1.2,0.2-1.9c0.4-1.9,1.3-3.4,2.7-4.6c1.4-1.2,3-1.8,5-1.8
		c1.5,0,2.7,0.4,3.6,1.1c1,0.8,1.5,1.9,1.5,3.4c0,0.5-0.1,1-0.2,1.5l-0.2,0.9L523.9,158.9z M530.1,153.2c-1.4,0-2.7,0.4-3.7,1.2
		c-1.1,0.8-1.8,1.9-2.2,3.3h9.9c0-0.3,0.1-0.6,0.1-0.9c0-1.2-0.4-2.1-1.1-2.7C532.3,153.5,531.3,153.2,530.1,153.2z M532.9,148.9
		l-3.5,2.9c-0.2,0.1-0.4,0.2-0.5,0.2c-0.4,0-0.6-0.2-0.5-0.6c0-0.1,0.1-0.3,0.3-0.4l3.4-2.9c0.3-0.3,0.6-0.3,0.9-0.1
		c0.1,0.1,0.2,0.3,0.1,0.4C533.1,148.6,533,148.7,532.9,148.9z"/>
	<path class="st2" d="M537.4,159c-0.1,0.4-0.1,0.8-0.1,1.2c0,2.3,1.4,3.5,4.1,3.5c2.4,0,4.2-1,5.3-2.9h1.3c-1.4,2.7-3.7,4.1-6.9,4.1
		c-1.6,0-2.8-0.4-3.6-1.1c-0.9-0.8-1.4-1.9-1.4-3.4c0-0.6,0.1-1.2,0.2-1.9c0.4-1.9,1.3-3.4,2.7-4.6c1.4-1.2,3-1.8,4.9-1.8
		c1.5,0,2.7,0.4,3.7,1.1c1,0.8,1.5,1.9,1.5,3.3c0,0.5-0.1,1-0.2,1.5l-0.2,0.9L537.4,159z M543.7,153.4c-1.4,0-2.7,0.4-3.7,1.2
		c-1.1,0.8-1.8,1.9-2.2,3.2h9.9c0-0.3,0.1-0.6,0.1-0.9c0-1.2-0.4-2-1.1-2.7C545.8,153.6,544.9,153.4,543.7,153.4z"/>
	<path class="st2" d="M549.4,164.5l3.6-16.7h1.3l-3.6,16.7H549.4z"/>
</g>
<path class="st1" d="M204,175.2c-0.7,0-1.3-0.4-1.7-1.2v-3.8c0.5-0.8,1.1-1.2,1.7-1.2c0.5,0,1.2,0.3,2,1v4.1
	C205.3,174.8,204.6,175.2,204,175.2z M202.3,203.6v-25.1h3.7v25.1H202.3z"/>
<path class="st1" d="M237.7,203.6v-15.9c0-2.2-1.1-3.8-3.4-4.9c-1.8-0.9-4.1-1.3-7-1.3c-3.4,0-6.2,0.7-8.3,2
	c-2.5,1.5-3.8,3.7-3.8,6.4v13.7h-3.7V179h3.7v3.2c2.6-2.5,6.6-3.7,12.1-3.7c3.6,0,6.6,0.6,9,1.7c3.4,1.5,5.1,3.9,5.1,7.1v10.4
	C239.6,201.2,237.7,203.6,237.7,203.6z"/>
<path class="st0" d="M275.7,203.6v-4.3c-3.1,3.2-7.6,4.8-13.7,4.8c-4.5,0-8.3-1-11.4-3c-3.6-2.4-5.4-5.7-5.4-10.1
	c0-4.4,1.8-7.8,5.4-10.1c3.1-2,7-3.1,11.7-3.1c6,0,10.5,1.5,13.4,4.6v-13h3.7v34.1h-3.7V203.6z M262,180.9c-3.7,0-6.8,0.8-9.1,2.5
	c-2.6,1.8-4,4.4-4,7.6c0,3.3,1.3,5.8,4,7.6c2.4,1.6,5.4,2.4,9.1,2.4s6.9-0.8,9.4-2.5c2.8-1.8,4.3-4.3,4.3-7.5c0-3.6-1.5-6.2-4.4-8
	C268.9,181.6,265.8,180.9,262,180.9z"/>
<path class="st0" d="M317.1,202.2c-3.4,1.2-7.4,1.8-12.1,1.8c-5.4,0-9.8-0.6-13.2-1.9c-5.2-1.9-7.8-5.1-7.8-9.7v-1.6h3.7v1.4
	c0,5.8,5.8,8.6,17.4,8.6c3.7,0,6.9-0.4,9.5-1.1c3.8-1.1,5.7-2.8,5.7-5.2c0-1.6-0.7-2.8-2-3.7c-1-0.6-2.7-1.2-5.1-1.7
	c-1.3-0.3-4.5-0.8-9.7-1.6c-5.8-0.9-9.8-1.7-11.8-2.5c-4.2-1.5-6.3-3.9-6.3-7.1c0-5.9,6.1-8.9,18.3-8.9c12.7,0,19.2,3.8,19.4,11.5
	h-3.7c-0.3-3.7-2.1-6.1-5.5-7.2c-2.3-0.8-5.7-1.2-10.2-1.2c-9.7,0-14.6,1.9-14.6,5.8c0,1.8,1.3,3.3,3.8,4.2c1.8,0.7,5,1.3,9.4,1.9
	c8.2,1.1,13.7,2.2,16.4,3.4c3.5,1.5,5.2,3.9,5.2,7.1C324,198.1,321.7,200.5,317.1,202.2z"/>
<path class="st0" d="M357.8,201.7c-3,2-6.9,3-11.7,3c-5.9,0-10.4-1.5-13.4-4.6v12H329v-33h3.7v4c2.9-3,7.4-4.6,13.3-4.6
	c4.8,0,8.7,1,11.7,2.9c3.6,2.3,5.4,5.7,5.4,10.1C363,195.9,361.3,199.3,357.8,201.7z M346.4,181.5c-3.8,0-7,0.8-9.5,2.4
	c-2.8,1.8-4.2,4.3-4.2,7.4c0,3.6,1.3,6.2,4,7.9c2.3,1.5,5.6,2.3,9.7,2.3c3.8,0,6.9-0.8,9.2-2.4c2.6-1.8,3.9-4.3,3.9-7.6
	c0-3.4-1.4-6-4.1-7.7C353,182.2,350,181.5,346.4,181.5z"/>
<path class="st0" d="M394.8,201.3c-3.2,1.9-7.2,2.8-11.9,2.8c-4.7,0-8.7-1-11.9-2.9c-3.8-2.3-5.7-5.6-5.7-10s2-7.7,5.9-10
	c3.2-1.9,7.2-2.9,11.9-2.9c4.8,0,8.7,1,11.9,2.9c3.9,2.3,5.8,5.7,5.8,10C400.7,195.6,398.7,199,394.8,201.3z M392.7,183.8
	c-2.5-1.5-5.8-2.3-9.8-2.3s-7.2,0.8-9.8,2.4c-2.8,1.7-4.2,4.2-4.2,7.5c0,3.2,1.4,5.7,4.3,7.4c2.6,1.6,5.8,2.4,9.8,2.4
	c3.9,0,7.1-0.8,9.7-2.4c2.9-1.7,4.3-4.2,4.3-7.4C397,188,395.6,185.5,392.7,183.8z"/>
<path class="st0" d="M412.2,183v20.6h-3.5l-0.2-20.6h-6.7v-3.1h6.7v-7.2h3.7v7.2h6.9v3.1H412.2z"/>
<path class="st0" d="M444.5,203.1c-2.2,0.7-5,1.1-8.3,1.1c-10.2,0-15.2-3.5-15.2-10.5h3.8c0,2.6,0.9,4.5,2.7,5.6
	c1.8,1.2,4.7,1.8,8.8,1.8c6.6,0,9.9-1.4,9.9-4.2c0-1.7-2.2-3-6.6-3.7c-2.2-0.2-4.4-0.5-6.5-0.7c-3.2-0.4-5.5-1-7.2-1.9
	c-2.2-1.1-3.4-2.8-3.4-4.9c0-2.6,1.6-4.6,4.8-5.9c2.3-0.9,4.9-1.4,7.8-1.4c9.8,0,14.7,3.1,14.7,9.4h-3.9c0-2.2-0.8-3.8-2.4-4.7
	c-1.7-1-4.4-1.6-8.1-1.6c-2.2,0-4.2,0.3-5.9,0.9c-2.2,0.8-3.3,1.9-3.3,3.3c0,1.7,2.1,2.8,6.4,3.4l7.2,0.9c6.7,0.8,10.1,3.1,10.1,6.9
	C449.9,199.8,448.1,201.9,444.5,203.1z"/>
<path class="st0" d="M459.4,203.7c-1.2,0-1.9-0.4-1.9-1.2v-2.1c0-0.8,0.6-1.2,1.9-1.2c1.2,0,1.8,0.4,1.8,1.2v2.1
	C461.2,203.3,460.6,203.7,459.4,203.7z"/>
<g>
	<path class="st3" d="M493.5,202c-3,1.8-6.8,2.7-11.4,2.7c-4.5,0-8.3-0.9-11.4-2.7c-3.6-2.2-5.4-5.4-5.4-9.5c0-4.2,1.9-7.3,5.6-9.6
		c3.1-1.8,6.8-2.7,11.3-2.7c4.5,0,8.3,0.9,11.3,2.7c3.7,2.2,5.5,5.4,5.5,9.6S497.2,199.8,493.5,202z M491.5,185.3
		c-2.4-1.5-5.5-2.2-9.3-2.2c-3.8,0-6.9,0.8-9.4,2.3c-2.7,1.7-4,4-4,7.2c0,3.1,1.4,5.4,4.1,7.1c2.5,1.5,5.6,2.3,9.3,2.3
		c3.7,0,6.8-0.8,9.3-2.3c2.8-1.7,4.1-4,4.1-7.1C495.6,189.4,494.2,187,491.5,185.3z"/>
	<path class="st3" d="M509.4,186c-2.2,2-3.4,4.9-3.4,8.5v9h-4v-23h4v3.7c0.8-0.8,1.9-1.6,3.2-2.2c2.8-1.4,6.4-2.1,10.8-2.1v2.9
		C515.2,183,511.6,184,509.4,186z"/>
	<path class="st3" d="M537.7,212.8c-3.5,0-6.4-0.4-8.7-1.3c-3.6-1.3-5.5-3.9-5.8-7.8h3.5c0.3,2.3,1.2,3.8,3,4.8
		c1.7,1,4.4,1.5,8.1,1.5c8,0,12-2.3,11.3-7v-2.6c-2.3,2.7-6.5,4.1-11.9,4.1c-4.3,0-7.8-0.9-10.7-2.7c-3.4-2.2-5.1-5.3-5.1-9.3
		c0-4.1,1.8-7.2,5.3-9.5c2.9-1.8,6.6-2.7,10.9-2.7c5.3,0,9.4,1.4,11.5,4.2v-3.8h4V203C553.2,209.5,548,212.8,537.7,212.8z
		 M537.4,183.1c-3.3,0-6.1,0.7-8.4,2.1c-2.8,1.7-4.1,4-4.1,7.2c0,3,1.2,5.3,3.6,6.9c2.2,1.5,5,2.2,8.4,2.2c3.5,0,6.4-0.7,8.7-2.1
		c2.7-1.6,4-3.9,4-6.9c0-3.1-1.3-5.5-4-7.2C543.4,183.9,540.6,183.1,537.4,183.1z"/>
</g>
</svg>
