<?xml version="1.0" encoding="utf-8"?>
<!DOCTYPE svg PUBLIC "-//W3C//DTD SVG 1.1//EN" "http://www.w3.org/Graphics/SVG/1.1/DTD/svg11.dtd">
<svg version="1.1" id="world" xmlns="http://www.w3.org/2000/svg" xmlns:xlink="http://www.w3.org/1999/xlink" x="0px" y="0px"
	 viewBox="0 0 72 72" >
	<g fill="#0034D2">
		<path d="M0 14v44h72V14H0zm27.83 4.44c-.28.05 3.48 1.72 3.48 1.72l-1.17 6.57L26.37 30l-.9-6.23-2.36-1.45s5-3.94 4.73-3.88zm29.1 2.6l.46 1.56 13.54 3.63-3.14 2.7-5.16.93-.26 2.1-4.06 2.92-.26 3.14-2.62 1.05-.1 1.8-2.2-2.2-3.04 3.16-1.2-2.47-2.95 1.08-1.65.96-1.06-.96-1.15-2.38.35-.5-.35-1.63-1.83-.38.43-.92-1.2-.58-1.22-.25-.8.17.8 1.82-1 .7.36-1-.86-1.32-1.22.97-.17.94-1.27.97-2.16-.6 1.26-1.76h2.12l1.1-2.02 2.87-1.14.5-.86-.44-.36.98-1.84-1.06-.04-1.02 1.92.5.5-.5.47-1.82-.84 1.82-2.36.76-1.46 1.95-.55 1.98 1.3-.54 1.03 4.36-2.8h3.9s1.26-3.93 1.52-3.93c.25 0 4.7-.7 4.7-.7zM3.52 26.3l4.35.67 4.17-.08 5.26 1.08-.67 3.18 2.67 2.17 1.57-3.1 3.05 3.02-2.54 1.6-2.08 3.5-3.34.5-.1 1.1 3.4 2.7-2.4-1.26-2.52-.63-.93-1.92-3.3-2V34l-4-3.6-2.03.76-.53-4.86zm37.97 2l.2.64.46-.3-.66-.33zm-7.4 9.12l4.05.8 3.48.4 1.52 3.85h1.44l-2.13 2.63-1.1 3.57-2.67 2.2-2.07-3.4v-5H33.4l-1.43-2.64 2.12-2.4zm-12.5 4.74l6.1 2.76-7 9.6.9-6.6-3.87-3 3.86-2.76zm39.38 4.14l3.56 2.07-.9 3.52-3.23-2.2-2.97 1.56-.5-3.14 4.05-1.82z"/>
	</g>
</svg>